<mxfile host="app.diagrams.net" modified="2023-11-15T05:30:12.465Z" agent="Mozilla/5.0 (Windows NT 10.0; Win64; x64) AppleWebKit/537.36 (KHTML, like Gecko) Chrome/119.0.0.0 Safari/537.36" version="22.1.1" etag="1RN2vI7GW7eZCPJnV2tv" type="github">
  <diagram name="페이지-1" id="YRn6ZzDpRNlVgfMUiu4O">
    <mxGraphModel>
      <root>
        <mxCell id="0" />
        <mxCell id="1" parent="0" />
      </root>
    </mxGraphModel>
  </diagram>
</mxfile>
